# 3ds Max Wavefront OBJ Exporter v0.97b - (c)2007 guruware
# File Created: 15.03.2018 02:41:11

#
# object Cone001
#

v  0.0000 9.4281 0.0000
v  -8.1650 -4.7141 0.0000
v  -0.0000 -0.0000 20.4522
v  8.1650 -4.7141 0.0000
# 4 vertices

vn 0.0000 0.9082 0.4186
vn -0.7865 -0.4541 0.4186
vn -0.0000 0.0000 1.0000
vn 0.7865 -0.4541 0.4186
vn 0.0000 0.0000 -1.0000
# 5 vertex normals

vt 1.7500 0.0000 1.0000
vt 1.0833 0.0000 1.0000
vt 1.5000 1.0000 0.0000
vt 0.0833 0.0000 1.0000
vt 0.4167 0.0000 1.0000
vt 0.5000 1.0000 0.0000
vt 0.7500 0.0000 1.0000
vt 0.9330 0.2500 -0.2500
vt 0.0670 0.2500 -0.2500
vt 0.5000 1.0000 -0.2500
# 10 texture coords

g Cone001
s 8
f 1/1/1 2/2/2 3/3/3 
f 2/4/2 4/5/4 3/6/3 
f 4/5/4 1/7/1 3/6/3 
s 1
f 4/8/5 2/9/5 1/10/5 
# 0 polygons - 4 triangles

